<?xml version="1.0" encoding="UTF-8"?>
<svg xmlns="http://www.w3.org/2000/svg" viewBox="0 0 2840.0 2600.0"><style>
.beat { transform-box: view-box; transform-origin: 1420.0px 1250px;
  animation: beat 1.8s cubic-bezier(.36,.07,.19,.97) infinite; }
@keyframes beat {
  0%,42%,100% { transform: scale(1); }
  8%  { transform: scale(1.075); }
  17% { transform: scale(1.0); }
  25% { transform: scale(1.045); }
  33% { transform: scale(1.0); }
}
.spark { transform-box: view-box; transform-origin: 1420.0px 1250px;
  animation: sparkbeat 1.8s cubic-bezier(.36,.07,.19,.97) infinite; }
@keyframes sparkbeat {
  0%,42%,100% { opacity:.32; transform: scale(1); }
  8%  { opacity:1;   transform: scale(1.12); }
  25% { opacity:.8;  transform: scale(1.08); }
}
</style><g class="beat"><g class="core"><g transform="translate(0.000000,2600.000000) scale(0.100000,-0.100000)"
fill="#C9BBAC" stroke="none">
<path d="M8151 23389 c-24 -4 -62 -18 -85 -30 -23 -12 -54 -29 -71 -38 -25
-13 -79 -17 -300 -21 -270 -5 -270 -5 -320 -34 -94 -54 -108 -59 -189 -66 -98
-9 -150 -23 -239 -61 -42 -19 -98 -33 -148 -39 -57 -7 -95 -17 -127 -36 -88
-50 -103 -56 -167 -64 -35 -4 -81 -17 -102 -28 -105 -57 -141 -72 -171 -72
-42 0 -100 -24 -133 -56 -15 -14 -57 -37 -94 -50 -36 -13 -83 -38 -103 -54
-23 -18 -58 -34 -91 -40 -37 -7 -70 -22 -105 -49 -28 -22 -64 -42 -81 -46 -16
-3 -40 -8 -51 -11 -12 -2 -43 -22 -70 -44 -27 -23 -64 -43 -84 -46 -60 -10
-71 -15 -109 -50 -21 -18 -68 -47 -104 -63 -71 -32 -162 -94 -214 -147 -23
-23 -48 -36 -87 -44 -55 -11 -134 -69 -206 -150 -24 -27 -105 -80 -217 -142
-52 -29 -924 -889 -1018 -1003 -53 -65 -132 -180 -155 -225 -10 -20 -57 -77
-104 -125 -87 -91 -100 -112 -110 -176 -5 -27 -26 -57 -91 -125 -47 -49 -98
-111 -113 -139 -59 -104 -116 -191 -147 -226 -34 -38 -39 -49 -49 -111 -4 -20
-22 -55 -41 -78 -20 -24 -42 -68 -54 -105 -11 -40 -33 -80 -55 -106 -20 -24
-38 -58 -42 -78 -9 -58 -24 -98 -45 -124 -10 -14 -33 -56 -49 -93 -17 -37 -46
-84 -65 -105 -40 -45 -43 -56 -47 -169 -2 -66 -8 -95 -27 -130 -13 -25 -32
-62 -43 -82 -11 -21 -23 -67 -28 -102 -6 -48 -16 -76 -41 -112 -48 -70 -58
-108 -59 -217 0 -101 -13 -150 -44 -176 -41 -34 -50 -72 -56 -226 -6 -142 -8
-153 -37 -210 -53 -103 -55 -120 -62 -440 -6 -300 -6 -300 -43 -380 -54 -118
-58 -159 -58 -549 0 -386 4 -419 62 -550 30 -66 32 -81 39 -231 8 -177 11
-191 60 -284 32 -61 34 -72 40 -195 7 -147 8 -150 58 -224 36 -54 36 -54 42
-200 7 -165 17 -211 61 -289 21 -38 33 -75 38 -123 4 -38 17 -88 29 -110 11
-22 31 -58 42 -81 14 -26 25 -70 29 -123 8 -83 23 -125 66 -181 12 -16 32 -56
44 -87 11 -31 30 -68 41 -82 11 -14 32 -51 46 -83 15 -32 40 -78 55 -103 16
-25 38 -75 49 -112 22 -70 96 -188 155 -246 21 -20 35 -46 39 -70 10 -57 24
-87 55 -117 16 -16 41 -60 56 -98 26 -69 45 -95 134 -192 26 -28 55 -73 65
-100 25 -68 87 -152 193 -263 74 -77 91 -102 106 -150 15 -48 29 -67 89 -122
150 -139 366 -358 404 -410 22 -30 299 -314 614 -631 575 -576 575 -576 592
-637 10 -35 30 -76 47 -95 49 -56 50 -65 50 -448 0 -388 2 -403 55 -459 29
-31 45 -71 45 -114 0 -43 22 -104 54 -153 14 -21 36 -66 49 -98 37 -93 109
-197 202 -291 71 -71 87 -94 100 -139 34 -114 256 -329 410 -395 27 -11 65
-36 86 -55 24 -22 62 -41 106 -54 43 -13 79 -31 94 -47 39 -42 72 -54 148 -54
83 0 112 -10 162 -55 45 -40 55 -43 174 -48 74 -3 100 -8 144 -31 60 -31 237
-66 333 -66 127 0 138 -21 138 -273 0 -237 10 -299 60 -401 36 -72 40 -86 40
-157 0 -91 9 -119 55 -170 20 -23 36 -53 40 -76 11 -62 14 -70 56 -120 22 -27
41 -63 45 -83 11 -71 32 -96 283 -348 258 -260 346 -334 434 -366 27 -10 68
-35 92 -56 46 -40 55 -44 116 -54 20 -4 53 -21 75 -40 65 -55 70 -56 253 -56
186 0 206 -4 262 -55 47 -43 54 -44 216 -47 205 -5 264 -62 274 -266 6 -133 8
-141 71 -241 18 -28 23 -57 29 -148 5 -88 12 -122 29 -155 12 -24 32 -61 44
-83 16 -30 22 -65 26 -140 6 -116 5 -115 114 -230 49 -51 82 -95 93 -125 54
-148 432 -525 601 -601 36 -17 82 -45 103 -63 38 -35 49 -40 109 -50 20 -3 57
-23 84 -46 48 -40 56 -43 127 -55 19 -3 58 -19 85 -36 88 -57 104 -59 379 -59
299 0 311 -3 398 -88 102 -99 102 -99 105 -377 3 -279 2 -274 47 -324 42 -46
55 -79 55 -135 0 -54 21 -116 55 -161 15 -19 35 -63 46 -98 19 -64 78 -150
154 -224 22 -21 39 -53 50 -90 28 -95 272 -332 400 -389 32 -14 82 -52 131
-99 96 -94 128 -115 174 -115 34 0 56 -9 162 -69 36 -21 62 -25 163 -31 120
-6 165 -18 194 -54 32 -38 102 -46 421 -46 342 0 387 5 497 58 67 32 88 36
167 39 121 5 126 7 182 53 28 23 64 42 84 46 70 11 94 31 327 261 174 173 248
240 281 254 79 34 241 177 372 329 46 52 109 122 140 155 32 33 70 84 84 113
18 36 69 95 160 186 138 137 200 218 242 312 13 30 43 76 67 102 37 41 81 107
128 192 10 18 15 84 19 236 5 211 5 211 35 248 47 59 65 89 65 109 0 49 32 86
103 122 40 19 88 45 107 58 31 19 53 23 206 28 183 7 179 7 304 75 30 16 60
24 95 24 68 0 123 16 165 49 19 15 64 43 100 63 154 83 196 112 273 191 45 46
107 100 138 119 38 25 66 53 89 89 18 30 69 90 114 134 119 117 165 177 197
257 16 39 45 88 63 108 35 39 40 50 51 113 3 20 19 52 34 70 55 63 61 85 61
226 0 129 0 129 39 203 45 85 61 167 61 316 0 232 39 261 350 262 227 0 251 4
330 55 30 19 70 37 90 41 71 11 80 15 125 54 29 25 59 41 83 45 79 11 122 26
168 55 27 16 73 39 103 50 30 12 66 29 80 39 14 10 50 30 78 45 118 59 420
387 487 529 20 42 45 81 55 87 27 14 131 182 147 238 8 26 25 65 39 87 52 84
59 108 65 222 5 107 7 113 38 152 56 70 62 101 62 323 0 253 -2 247 128 319
97 54 97 54 317 59 121 3 229 10 239 15 11 4 44 23 74 41 30 18 75 36 101 39
79 10 87 14 137 55 28 23 64 42 84 46 63 10 84 23 174 109 67 65 97 86 125 91
61 10 70 14 116 54 25 22 73 52 108 69 71 34 155 122 186 193 11 26 55 82 105
134 48 49 96 107 108 129 11 22 33 58 48 80 14 22 41 69 59 105 17 36 43 85
58 110 24 40 28 58 34 175 6 124 8 134 44 208 46 96 54 196 55 737 0 384 -1
379 86 420 66 31 348 314 398 400 25 43 104 129 264 288 220 220 313 330 429
507 25 39 60 86 78 106 34 38 39 49 49 110 5 28 26 58 91 125 86 90 99 111
109 174 4 20 23 56 45 83 41 50 45 58 55 119 4 23 22 54 50 85 23 26 57 74 74
106 18 31 46 83 64 115 17 31 44 73 59 92 34 45 49 91 49 151 0 61 13 93 55
140 19 21 37 51 40 66 15 70 27 104 49 130 41 49 50 76 56 170 5 81 10 98 42
150 49 80 58 113 58 209 0 92 10 127 45 164 37 39 55 93 55 168 0 53 5 77 24
112 74 135 69 109 75 406 6 272 6 272 39 313 65 80 63 54 60 838 -3 711 -3
711 -48 794 -44 84 -44 84 -50 295 -6 210 -6 210 -49 300 -38 78 -44 101 -51
185 -8 100 -13 115 -64 189 -29 43 -31 51 -37 170 -6 130 -8 139 -71 238 -13
22 -23 60 -29 112 -5 51 -15 92 -31 119 -60 108 -68 128 -68 163 0 44 -16 87
-53 141 -14 21 -33 61 -43 90 -9 29 -32 77 -51 108 -18 30 -43 80 -54 110 -11
30 -34 75 -50 100 -16 25 -38 71 -49 103 -22 66 -125 232 -151 247 -10 5 -30
31 -45 57 -84 149 -111 191 -145 227 -21 22 -51 71 -68 108 -17 37 -41 82 -55
100 -13 18 -33 55 -43 82 -48 125 -92 174 -717 799 -621 621 -671 666 -782
717 -37 16 -78 42 -93 57 -73 79 -142 129 -201 147 -42 13 -74 31 -100 56 -22
21 -58 48 -82 60 -79 40 -193 112 -230 145 -21 18 -49 36 -63 39 -14 3 -37 8
-52 11 -16 3 -51 23 -79 44 -32 25 -69 43 -103 51 -29 6 -67 23 -84 38 -58 48
-64 52 -123 61 -39 6 -75 21 -109 44 -27 19 -77 42 -110 51 -33 9 -85 32 -115
50 -55 33 -101 49 -172 60 -21 3 -55 20 -78 40 -23 19 -59 39 -81 45 -21 5
-57 15 -80 21 -22 5 -61 23 -87 40 -63 40 -101 49 -207 49 -87 0 -93 2 -181
46 -85 43 -97 46 -190 51 -115 6 -153 15 -193 49 -56 46 -69 48 -426 54 -340
6 -340 6 -410 37 -197 88 -809 76 -1060 -21 -33 -12 -97 -15 -373 -16 -355 0
-363 -1 -407 -50 -34 -38 -77 -50 -182 -50 -141 -1 -243 -21 -306 -62 -47 -30
-60 -33 -137 -36 -113 -4 -124 -7 -169 -47 -50 -45 -79 -55 -162 -55 -77 0
-96 -7 -151 -56 -21 -19 -53 -36 -75 -39 -63 -11 -74 -16 -112 -51 -47 -41
-79 -54 -140 -54 -62 0 -121 -21 -169 -59 -20 -17 -53 -33 -72 -36 -19 -4 -45
-8 -56 -11 -12 -2 -43 -22 -70 -44 -28 -23 -64 -42 -84 -46 -55 -9 -85 -23
-116 -55 -18 -19 -52 -36 -97 -50 -68 -20 -114 -54 -215 -155 -20 -21 -46 -35
-70 -39 -65 -11 -85 -24 -176 -110 -67 -65 -97 -86 -125 -91 -61 -10 -70 -14
-118 -56 -26 -22 -66 -49 -90 -59 -115 -49 -281 -193 -337 -291 -15 -28 -46
-61 -74 -80 -68 -46 -141 -110 -248 -215 -51 -51 -108 -99 -126 -109 -18 -9
-58 -31 -88 -49 -109 -65 -170 -80 -253 -62 -39 9 -89 19 -109 22 -33 5 -78
46 -370 337 -331 329 -386 376 -520 444 -29 15 -72 44 -96 65 -31 27 -59 41
-97 49 -47 10 -64 21 -142 95 -90 86 -110 99 -175 110 -24 4 -50 18 -70 39
-44 46 -190 143 -226 150 -15 4 -50 25 -76 46 -30 25 -72 47 -112 59 -42 12
-79 32 -104 55 -22 19 -52 38 -67 41 -71 15 -104 27 -132 50 -44 37 -94 55
-155 55 -68 0 -99 12 -147 54 -38 35 -49 40 -110 50 -20 4 -53 21 -75 40 -60
51 -76 56 -172 56 -94 0 -91 -1 -235 77 -16 8 -57 19 -93 23 -35 4 -78 17 -96
29 -98 61 -108 64 -238 70 -121 6 -127 8 -172 39 -83 57 -109 62 -337 62 -227
0 -204 -5 -333 70 -45 26 -1357 43 -1477 19z m1244 -774 c83 -8 212 -15 288
-15 144 0 189 -10 232 -50 44 -41 87 -50 249 -50 163 0 195 -6 236 -45 39 -38
93 -55 172 -56 79 -1 108 -9 179 -52 26 -15 73 -32 105 -38 116 -20 147 -30
189 -59 40 -28 82 -41 177 -55 24 -4 54 -20 83 -45 46 -40 55 -44 117 -55 23
-3 56 -21 83 -45 26 -22 58 -42 73 -45 71 -15 102 -27 136 -54 21 -17 62 -37
91 -46 35 -10 66 -28 88 -50 33 -34 133 -95 232 -142 28 -13 64 -31 80 -40
135 -73 173 -97 195 -122 61 -70 140 -128 201 -146 59 -18 70 -27 242 -199
189 -189 202 -201 396 -359 79 -64 135 -119 163 -158 24 -34 54 -77 68 -97 33
-47 35 -138 4 -197 -76 -147 -80 -151 -828 -899 -875 -875 -831 -828 -846
-900 -10 -48 -20 -64 -86 -133 -99 -103 -107 -119 -114 -233 -4 -71 -12 -107
-28 -138 -12 -23 -32 -61 -44 -84 -22 -42 -23 -52 -26 -393 -3 -393 1 -440 55
-560 31 -68 37 -94 43 -180 8 -120 15 -135 114 -238 55 -58 79 -91 91 -128 18
-52 94 -161 150 -214 18 -17 44 -53 58 -82 40 -77 132 -172 196 -200 30 -13
68 -39 85 -57 86 -93 171 -146 257 -160 21 -4 53 -18 73 -31 77 -52 98 -58
217 -65 109 -5 120 -8 168 -37 135 -84 589 -84 761 0 55 27 79 32 150 35 114
4 120 6 176 52 27 23 64 43 84 46 59 10 67 14 117 55 27 22 63 41 83 45 19 3
48 10 64 17 16 6 386 368 859 840 520 520 842 834 863 843 41 17 187 19 251 3
64 -17 946 -894 997 -992 28 -53 40 -65 91 -92 55 -28 72 -45 138 -139 9 -14
48 -45 85 -69 37 -24 73 -51 81 -61 21 -25 66 -46 99 -46 16 0 50 -11 76 -25
79 -42 93 -37 218 80 242 227 233 358 -47 639 -79 79 -157 167 -177 201 -20
33 -78 101 -128 150 -51 50 -115 117 -142 150 -28 33 -99 105 -158 160 -59 55
-170 172 -247 260 -77 88 -160 176 -184 195 -24 19 -100 87 -169 151 -137 128
-214 192 -275 229 -22 14 -74 58 -115 99 -112 110 -113 111 -258 111 -133 0
-145 -3 -204 -56 -22 -19 -61 -40 -94 -50 -80 -23 -174 -112 -921 -865 -177
-178 -357 -358 -400 -400 -79 -77 -151 -164 -191 -230 -24 -40 -247 -245 -314
-289 -24 -16 -83 -67 -132 -114 -69 -66 -98 -87 -125 -91 -68 -11 -116 -27
-154 -52 -77 -49 -102 -53 -366 -53 -263 1 -288 5 -359 53 -36 25 -85 41 -164
52 -26 4 -52 19 -82 48 -24 23 -95 89 -156 147 -174 162 -295 289 -324 338 -5
8 -12 48 -17 88 -5 44 -17 89 -31 114 -73 131 -68 107 -68 310 0 194 10 243
53 279 10 7 29 52 43 100 15 47 36 99 47 115 11 15 32 50 46 76 14 26 108 134
208 241 100 107 198 217 219 244 20 28 57 73 82 100 25 28 61 75 80 105 47 73
240 264 307 303 106 63 269 219 303 291 45 95 1611 1663 1701 1704 88 40 165
100 315 247 122 118 146 137 192 151 51 15 134 73 208 147 26 26 49 38 91 47
40 8 68 22 101 51 27 23 66 45 99 54 29 9 70 29 91 46 82 65 221 140 278 149
61 10 87 21 129 56 26 22 60 34 130 49 15 3 45 21 66 40 50 45 79 55 162 55
77 0 95 7 153 56 22 19 55 36 75 40 61 10 70 14 117 55 25 21 46 39 47 40 1 1
54 4 117 8 89 5 124 11 155 27 22 12 62 33 89 48 49 26 52 26 265 26 274 0
326 8 405 57 101 63 1532 73 1651 11 107 -55 139 -60 445 -67 285 -6 285 -6
335 -40 62 -44 107 -60 167 -61 61 0 93 -13 139 -55 21 -19 51 -37 66 -40 70
-15 104 -27 130 -49 49 -40 76 -49 164 -56 78 -6 91 -10 135 -42 51 -37 102
-58 139 -58 12 0 44 -12 71 -26 27 -15 90 -48 139 -74 179 -94 224 -119 273
-153 28 -19 66 -37 84 -41 18 -3 54 -23 79 -44 28 -23 71 -46 109 -57 40 -12
75 -31 94 -50 104 -103 147 -135 207 -152 58 -16 70 -25 204 -158 199 -196
295 -274 405 -330 57 -29 362 -326 405 -396 16 -24 54 -75 85 -114 31 -38 75
-97 97 -130 23 -33 74 -94 115 -135 41 -41 92 -104 114 -138 85 -138 100 -161
139 -207 22 -27 58 -68 81 -91 29 -31 45 -59 57 -103 10 -37 30 -75 49 -97 32
-35 63 -91 143 -254 53 -109 104 -189 151 -241 29 -32 44 -59 48 -85 12 -81
28 -130 52 -167 36 -54 45 -83 55 -165 5 -50 17 -89 35 -120 47 -83 55 -101
60 -139 10 -72 14 -82 54 -128 25 -29 41 -59 45 -83 11 -78 27 -128 51 -165
45 -69 48 -85 54 -307 5 -229 2 -214 66 -325 37 -64 48 -453 38 -1373 -7 -659
1 -584 -74 -714 -23 -40 -25 -55 -30 -223 -5 -163 -7 -183 -27 -215 -51 -81
-64 -115 -72 -185 -6 -46 -17 -87 -29 -107 -63 -99 -65 -107 -72 -243 -6 -129
-12 -152 -51 -203 -10 -13 -28 -49 -39 -80 -12 -31 -35 -78 -51 -103 -16 -26
-40 -73 -53 -106 -12 -32 -37 -78 -54 -102 -17 -23 -38 -68 -47 -99 -9 -32
-31 -82 -49 -112 -19 -30 -44 -75 -56 -100 -13 -25 -35 -59 -50 -77 -16 -17
-35 -56 -44 -87 -10 -34 -32 -73 -55 -100 -41 -47 -45 -56 -55 -117 -5 -25
-25 -58 -66 -104 -70 -80 -120 -152 -120 -174 0 -31 -41 -81 -177 -218 -270
-271 -376 -394 -423 -491 -45 -94 -220 -264 -335 -327 -109 -58 -134 -60 -205
-11 -29 20 -60 36 -69 36 -9 0 -30 9 -48 19 -47 29 -1034 1020 -1062 1066 -34
57 -137 161 -200 202 -72 47 -1070 1046 -1106 1107 -42 72 -119 150 -191 196
-45 29 -168 143 -396 372 -355 355 -417 412 -480 434 -51 18 -234 19 -264 1
-78 -45 -149 -132 -226 -277 -35 -66 29 -225 127 -315 18 -17 44 -53 58 -80
34 -67 208 -274 376 -449 219 -227 559 -564 661 -656 52 -46 237 -224 410
-395 173 -171 506 -497 740 -725 234 -228 475 -465 535 -526 259 -262 385
-394 451 -474 69 -82 209 -237 273 -301 17 -17 31 -34 31 -37 1 -41 35 -154
56 -185 38 -57 54 -112 54 -182 0 -71 12 -112 52 -175 34 -52 32 -84 -7 -141
-36 -51 -45 -91 -45 -196 0 -103 -8 -132 -50 -179 -16 -19 -38 -63 -48 -98
-17 -56 -32 -78 -101 -154 -76 -82 -152 -187 -188 -257 -25 -48 -54 -75 -118
-107 -33 -16 -80 -40 -105 -54 -24 -13 -59 -24 -78 -24 -39 0 -79 -19 -107
-50 -43 -48 -59 -50 -469 -50 -384 0 -384 0 -437 30 -30 16 -82 43 -117 61
-34 17 -70 42 -78 55 -15 22 -129 96 -222 143 -62 32 -952 923 -997 999 -43
72 -299 328 -391 391 -38 25 -78 61 -89 79 -11 18 -29 47 -40 64 -11 18 -46
47 -78 65 -68 38 -169 138 -199 196 -11 23 -79 103 -151 177 -71 74 -173 180
-226 235 -53 55 -110 121 -127 146 -18 25 -99 108 -180 183 -82 75 -193 183
-247 241 -86 92 -105 107 -159 127 -36 13 -76 36 -97 57 -201 202 -324 195
-529 -30 -67 -74 -72 -86 -72 -182 0 -198 -99 -88 1603 -1790 1398 -1398 1480
-1483 1508 -1543 32 -73 62 -116 130 -190 33 -36 53 -68 64 -107 9 -30 32 -75
52 -101 30 -39 37 -56 43 -118 9 -82 17 -108 54 -162 37 -54 40 -91 16 -160
-11 -33 -20 -75 -20 -95 0 -20 -7 -61 -15 -91 -14 -52 -31 -134 -41 -207 -3
-19 -22 -52 -44 -78 -40 -46 -44 -55 -54 -117 -5 -28 -27 -58 -98 -132 -50
-53 -98 -106 -106 -118 -26 -39 -75 -89 -127 -128 -27 -21 -85 -72 -128 -114
-52 -50 -94 -80 -125 -92 -26 -10 -62 -28 -80 -41 -71 -53 -74 -53 -476 -53
-403 0 -407 0 -467 54 -38 35 -49 40 -111 51 -34 5 -666 619 -1371 1331 -638
644 -1050 1055 -1078 1076 -20 14 -76 66 -125 115 -234 232 -554 519 -623 560
-24 14 -80 61 -125 105 -138 136 -250 150 -422 51 -127 -73 -134 -85 -134
-240 0 -133 3 -144 56 -207 19 -22 36 -55 40 -75 11 -69 27 -90 209 -277 256
-261 267 -314 99 -499 -47 -51 -98 -112 -113 -136 -28 -44 -72 -88 -249 -247
-78 -70 -97 -94 -127 -157 -47 -100 -226 -283 -306 -313 -60 -22 -151 -94
-216 -170 -40 -47 -99 -101 -285 -263 -84 -73 -140 -75 -223 -9 -20 16 -61 36
-90 45 -33 9 -72 31 -99 54 -47 41 -56 45 -116 55 -20 3 -56 23 -83 45 -50 41
-58 45 -117 55 -20 3 -57 23 -84 46 -61 50 -54 49 -277 52 -187 3 -187 3 -240
40 -73 49 -112 58 -267 58 -206 0 -212 6 -212 228 0 81 -7 194 -15 252 -8 58
-15 131 -15 164 0 45 -8 76 -35 136 -19 43 -35 92 -35 109 0 38 -19 78 -50
106 -30 27 -50 76 -50 123 0 111 -62 194 -384 515 -389 387 -470 447 -639 472
-23 4 -53 19 -75 39 -48 43 -74 56 -109 56 -27 0 -58 14 -155 70 -42 25 -47
25 -320 30 -399 7 -412 19 -416 373 -3 269 -2 266 -47 316 -47 52 -55 78 -55
180 0 98 -14 149 -58 214 -16 23 -36 67 -45 97 -9 31 -32 78 -52 105 -19 28
-42 73 -51 102 -36 124 -473 573 -583 600 -41 9 -94 39 -119 66 -26 28 -58 42
-112 51 -20 4 -56 23 -84 46 -49 40 -58 44 -130 54 -21 3 -56 14 -77 26 -22
11 -58 30 -81 42 -34 18 -66 24 -150 28 -102 5 -108 7 -160 42 -121 83 -378
84 -545 2 -51 -25 -93 -37 -147 -43 -42 -5 -93 -18 -113 -29 -21 -11 -60 -31
-87 -46 -27 -14 -64 -26 -82 -26 -45 0 -72 -12 -123 -54 -23 -20 -67 -43 -96
-51 -53 -16 -149 -84 -210 -150 -16 -17 -50 -42 -75 -55 -134 -68 -221 -143
-553 -480 -467 -471 -580 -582 -614 -596 -37 -16 -159 -19 -195 -5 -20 7 -600
572 -877 852 -35 35 -200 202 -367 371 -189 192 -312 324 -325 350 -43 86 -94
164 -135 208 -23 25 -52 65 -64 89 -12 25 -55 79 -95 121 -40 42 -80 92 -90
111 -10 18 -33 52 -52 74 -35 40 -48 77 -58 156 -4 28 -21 72 -44 110 -21 35
-46 87 -55 116 -10 28 -30 71 -46 95 -17 24 -41 79 -55 123 -15 51 -34 90 -50
105 -15 14 -33 51 -45 91 -11 36 -34 83 -50 104 -28 35 -40 66 -55 137 -3 15
-23 48 -45 73 -22 25 -40 47 -41 48 -1 1 -4 58 -8 127 -8 130 -11 140 -73 239
-17 27 -23 57 -29 139 -6 97 -9 109 -49 185 -44 82 -44 82 -51 232 -8 171 -9
172 -58 280 -53 117 -58 1595 -5 1705 43 90 55 145 63 291 6 118 9 132 40 190
49 93 52 108 59 280 7 157 7 157 43 210 43 64 59 108 59 163 0 44 18 84 63
139 18 23 31 54 37 92 5 32 18 74 30 94 11 20 38 70 60 111 23 41 54 96 71
121 20 31 31 62 35 100 10 103 15 118 54 165 27 33 43 64 50 101 8 34 23 67
45 94 21 24 43 67 55 108 13 43 30 77 49 95 32 31 46 61 56 119 5 30 23 55 90
122 103 103 187 201 209 244 51 98 122 188 244 309 128 127 146 151 234 309
35 63 60 84 170 143 69 37 108 70 234 195 398 395 452 444 491 450 63 11 74
16 112 50 46 41 167 120 213 139 20 9 59 36 88 60 33 29 67 48 89 52 55 9 87
23 113 51 12 14 48 38 80 53 31 15 78 41 105 58 27 17 72 36 101 42 29 7 78
29 110 50 31 21 83 45 114 54 32 9 73 30 91 46 46 40 77 50 158 50 74 0 111
13 144 50 28 32 76 50 132 50 67 0 163 25 231 59 31 15 84 36 117 46 33 9 84
33 114 53 53 37 53 37 240 43 175 5 190 7 251 33 152 66 148 65 375 66 116 0
239 5 275 11 179 31 671 33 965 4z m-885 -10851 c25 -17 71 -43 102 -57 88
-39 574 -526 583 -583 8 -51 27 -90 67 -137 33 -39 33 -39 36 -460 4 -511 12
-462 -93 -573 -87 -91 -99 -111 -110 -177 -11 -69 -1009 -1056 -1093 -1081
-58 -18 -171 -99 -194 -140 -15 -28 -63 -48 -140 -62 -59 -10 -96 -24 -141
-51 -90 -56 -363 -58 -467 -4 -39 20 -101 41 -160 53 -66 13 -112 29 -150 52
-30 19 -84 48 -120 65 -146 69 -197 107 -359 270 -135 137 -162 169 -176 211
-9 28 -33 74 -53 103 -47 69 -56 190 -45 647 7 301 10 328 29 365 75 145 86
157 650 721 571 571 595 593 749 672 22 12 76 56 120 98 117 113 72 105 525
102 395 -3 395 -3 440 -34z m2302 -2407 c30 -20 77 -44 105 -52 28 -8 73 -30
100 -48 26 -18 70 -41 96 -51 74 -28 172 -131 193 -203 12 -43 32 -73 88 -135
106 -118 176 -223 196 -293 8 -28 10 -160 8 -436 -3 -396 -3 -396 -40 -444
-21 -26 -44 -71 -52 -99 -11 -38 -30 -68 -72 -111 -229 -241 -330 -363 -419
-504 -49 -78 -248 -268 -308 -295 -48 -21 -296 -232 -485 -413 -50 -48 -74
-63 -121 -76 -35 -10 -75 -31 -101 -52 -23 -19 -43 -35 -43 -36 -1 0 -46 -4
-99 -8 -91 -7 -100 -10 -135 -39 -86 -74 -153 -78 -270 -18 -74 39 -145 56
-230 56 -60 0 -111 18 -154 54 -16 14 -53 31 -82 40 -47 14 -136 71 -236 153
-36 29 -114 119 -191 218 -25 33 -69 85 -97 118 -35 39 -54 71 -59 95 -10 62
-15 73 -50 111 -43 48 -54 79 -54 150 0 90 -17 160 -52 215 -42 64 -43 109 -4
164 38 55 55 107 56 168 0 62 12 99 56 171 18 31 36 76 39 102 4 25 9 59 12
74 3 20 59 83 187 210 99 100 203 210 229 245 27 34 72 80 100 102 29 22 63
56 77 77 14 20 53 71 88 112 35 42 79 102 98 134 57 97 239 269 308 290 30 10
76 33 101 52 58 45 180 118 228 139 21 8 51 29 67 46 58 62 47 60 476 58 392
-3 392 -3 446 -41z m5530 -1066 c32 -12 336 -315 348 -347 11 -29 12 -160 1
-187 -13 -35 -132 -161 -292 -311 -41 -38 -92 -95 -114 -125 -43 -60 -835
-849 -1095 -1091 -85 -79 -172 -161 -192 -181 -49 -49 -109 -69 -146 -48 -27
15 -30 20 -77 119 -15 30 -37 75 -51 100 -19 35 -24 59 -24 112 0 77 -13 115
-58 172 -73 89 -57 141 93 316 64 74 131 161 150 192 64 107 1129 1161 1218
1204 40 19 92 46 117 60 46 25 83 30 122 15z m1101 -1100 c52 -20 837 -818
875 -890 19 -36 56 -106 82 -156 26 -49 58 -109 70 -133 14 -26 26 -73 31
-120 4 -42 13 -93 19 -112 14 -47 12 -103 -5 -175 -9 -37 -15 -112 -15 -192 0
-144 -6 -169 -50 -220 -18 -20 -37 -59 -47 -96 -24 -90 -505 -575 -596 -602
-30 -9 -75 -32 -100 -51 -37 -29 -59 -37 -111 -44 -65 -8 -80 -14 -171 -66
-142 -81 -419 -15 -520 124 -16 22 -64 87 -106 144 -42 57 -87 119 -100 138
-86 126 -395 400 -509 452 -32 14 -83 51 -120 87 -80 77 -131 108 -200 121
-119 23 -187 113 -166 223 11 60 1405 1452 1498 1497 35 16 83 41 107 55 46
26 93 32 134 16z m-4397 -101 c15 -6 45 -26 65 -45 38 -34 50 -39 123 -49 106
-14 218 -95 443 -321 204 -206 223 -230 223 -288 0 -46 44 -211 74 -282 41
-97 39 -323 -5 -415 -33 -69 -68 -210 -69 -272 0 -49 -14 -84 -50 -125 -18
-20 -37 -60 -47 -96 -20 -71 -1084 -1157 -1184 -1207 -24 -13 -59 -33 -79 -46
-19 -13 -61 -32 -93 -43 -32 -11 -85 -37 -118 -58 -88 -54 -247 -65 -669 -47
-211 10 -248 18 -264 59 -3 8 -37 30 -76 50 -169 85 -386 277 -430 381 -23 53
-92 155 -146 217 -24 26 -45 61 -49 77 -3 16 -25 57 -48 92 -62 93 -65 562 -5
693 20 44 39 96 43 115 12 57 31 85 123 178 48 49 110 118 137 153 28 35 87
108 133 164 46 55 95 120 109 144 30 51 529 554 571 575 15 7 40 16 56 20 17
4 57 35 96 76 37 37 86 80 109 94 23 15 59 44 81 65 24 23 58 43 86 51 26 8
70 29 98 48 28 19 60 38 71 43 30 12 658 11 691 -1z m2326 -2339 c77 -38 97
-44 180 -50 92 -7 140 -25 152 -56 2 -7 26 -26 53 -41 230 -130 248 -147 334
-316 12 -24 39 -61 59 -84 37 -41 43 -56 55 -145 3 -26 21 -71 39 -102 42 -69
56 -109 56 -159 0 -22 12 -89 26 -151 26 -116 26 -137 -2 -251 -9 -32 -19
-101 -23 -153 -7 -85 -11 -97 -40 -131 -38 -45 -58 -85 -66 -134 -4 -24 -18
-50 -39 -70 -18 -18 -50 -58 -71 -88 -21 -30 -61 -82 -90 -115 -29 -33 -64
-84 -79 -113 -37 -74 -837 -874 -900 -902 -55 -23 -216 -127 -216 -139 0 -20
-56 -44 -122 -52 -44 -5 -85 -18 -112 -34 -112 -67 -108 -66 -329 -63 -220 3
-191 -3 -329 70 -20 11 -64 23 -97 28 -45 6 -76 19 -120 48 -32 21 -80 45
-107 52 -42 12 -68 34 -205 169 -162 161 -181 186 -279 376 -26 50 -58 110
-71 135 -35 66 -38 759 -3 825 59 111 90 163 121 197 20 24 39 61 50 100 17
59 23 67 200 244 106 107 220 233 272 301 84 111 149 176 231 234 60 42 167
136 252 220 55 55 100 90 137 107 68 31 199 119 211 143 14 24 72 49 118 49
50 0 113 22 155 54 56 43 73 46 297 43 215 -2 215 -2 302 -46z"/>
</g></g><g class="spark s0"><g transform="translate(0.000000,2600.000000) scale(0.100000,-0.100000)"
fill="#7B91AD" stroke="none">
<path d="M1855 21888 c-82 -46 -227 -217 -249 -292 -12 -41 -32 -69 -100 -141
-87 -91 -100 -112 -110 -175 -4 -20 -23 -56 -46 -84 -22 -27 -42 -59 -45 -72
-3 -13 -8 -36 -11 -51 -3 -16 -23 -51 -44 -79 -25 -32 -43 -69 -50 -102 -10
-44 -22 -62 -87 -129 -102 -107 -113 -131 -113 -270 0 -119 -6 -145 -39 -180
-50 -53 -61 -84 -61 -176 0 -64 -6 -103 -21 -145 -93 -253 -96 -316 -21 -454
94 -171 181 -213 337 -162 176 58 167 53 195 123 14 34 40 80 57 101 37 43 49
69 58 121 3 20 20 53 39 75 43 51 56 76 56 111 0 27 9 48 68 153 14 26 26 70
31 116 7 59 15 82 37 110 53 66 57 75 65 126 5 30 23 76 44 109 19 31 43 84
54 117 22 72 91 196 144 259 23 28 44 67 54 103 10 37 31 77 54 105 39 48 43
56 53 116 4 20 21 53 40 75 53 63 56 74 56 206 0 147 1 146 -126 272 -119 119
-237 161 -319 114z"/>
</g></g><g class="spark s1"><g transform="translate(0.000000,2600.000000) scale(0.100000,-0.100000)"
fill="#7B91AD" stroke="none">
<path d="M6890 25188 c-19 -5 -57 -26 -85 -46 -49 -37 -50 -37 -175 -43 -135
-6 -157 -12 -228 -61 -44 -31 -53 -33 -158 -38 -105 -5 -114 -7 -170 -41 -78
-48 -86 -50 -180 -59 -55 -5 -94 -16 -123 -32 -120 -66 -125 -68 -187 -68 -74
0 -131 -19 -182 -60 -26 -20 -56 -33 -90 -39 -51 -8 -60 -12 -126 -65 -31 -24
-50 -30 -114 -36 -90 -9 -120 -19 -171 -61 -30 -24 -54 -32 -104 -39 -36 -4
-78 -15 -94 -23 -112 -58 -182 -102 -203 -126 -14 -16 -56 -46 -95 -65 -38
-20 -108 -59 -155 -86 -47 -27 -116 -65 -155 -86 -38 -20 -84 -51 -101 -68
-20 -21 -53 -39 -93 -51 -61 -18 -111 -55 -204 -147 -27 -27 -50 -39 -91 -48
-68 -14 -95 -37 -427 -372 -270 -271 -279 -284 -279 -383 0 -73 7 -91 56 -149
19 -22 36 -55 40 -75 18 -110 37 -121 222 -121 192 0 270 31 387 155 17 18 53
44 82 58 103 53 210 137 359 284 75 74 101 93 131 98 63 11 74 16 112 50 43
39 209 145 227 145 7 0 38 22 70 50 37 32 69 52 93 56 60 10 68 14 118 55 27
22 63 42 83 45 61 10 72 15 114 53 37 34 83 62 205 128 25 12 56 23 70 23 30
0 105 32 115 49 17 27 75 46 156 51 80 5 88 8 147 50 51 35 74 45 123 51 33 4
79 17 102 29 24 12 61 32 82 43 28 15 68 23 130 27 86 6 145 24 161 50 21 34
85 50 200 50 125 0 169 11 215 55 46 44 62 45 503 45 663 0 963 20 1073 70 38
18 76 24 174 30 138 7 160 14 234 67 147 105 179 181 136 322 -11 36 -25 85
-30 108 -13 53 -39 78 -103 99 -27 9 -66 31 -86 49 -20 18 -46 37 -58 44 -28
15 -1601 14 -1653 -1z"/>
</g></g><g class="spark s2"><g transform="translate(0.000000,2600.000000) scale(0.100000,-0.100000)"
fill="#7B91AD" stroke="none">
<path d="M20008 25186 c-157 -56 -309 -229 -308 -350 1 -138 234 -336 395
-336 38 0 69 -9 121 -34 127 -62 90 -59 849 -65 618 -5 704 -8 730 -22 17 -9
53 -29 80 -45 48 -28 56 -29 216 -34 167 -5 167 -5 207 -38 56 -44 84 -54 182
-61 74 -6 92 -12 132 -39 62 -42 90 -53 171 -62 52 -6 75 -14 103 -36 64 -52
88 -64 124 -64 33 0 54 -9 160 -68 23 -13 71 -26 111 -32 58 -7 78 -14 108
-39 44 -38 84 -58 131 -65 20 -4 56 -23 83 -45 50 -41 58 -45 118 -55 23 -4
55 -22 85 -49 26 -23 70 -54 98 -68 81 -41 191 -104 227 -131 19 -14 56 -33
84 -43 27 -10 70 -37 95 -60 45 -40 125 -92 208 -134 24 -12 102 -81 176 -155
131 -132 227 -204 330 -251 28 -12 68 -36 90 -54 54 -44 91 -51 261 -51 179 0
190 4 258 107 141 210 58 383 -368 768 -162 146 -210 183 -277 214 -34 16 -76
43 -93 61 -45 48 -142 114 -217 148 -36 16 -71 39 -77 51 -7 12 -46 39 -89 62
-42 22 -120 65 -172 95 -52 29 -119 65 -149 80 -30 14 -74 43 -98 64 -32 27
-60 42 -97 50 -35 7 -67 23 -99 50 -50 40 -58 44 -117 54 -20 3 -57 23 -84 46
-27 22 -59 42 -72 45 -13 3 -36 8 -51 11 -16 3 -52 24 -82 47 -52 40 -55 41
-152 47 -92 6 -101 8 -139 38 -51 42 -109 62 -177 62 -52 0 -123 26 -138 50
-15 24 -75 43 -160 50 -90 7 -121 17 -205 67 -39 24 -58 28 -165 33 -115 5
-122 7 -167 38 -71 49 -93 55 -228 61 -122 6 -126 7 -185 43 -33 21 -80 42
-105 47 -74 17 -1615 14 -1662 -3z"/>
</g></g><g class="spark s3"><g transform="translate(0.000000,2600.000000) scale(0.100000,-0.100000)"
fill="#7B91AD" stroke="none">
<path d="M26519 21891 c-72 -22 -183 -110 -203 -162 -19 -46 -23 -340 -6 -398
13 -48 86 -167 137 -224 27 -31 45 -62 49 -85 10 -61 14 -69 55 -119 22 -27
42 -63 45 -83 10 -59 14 -67 55 -117 23 -28 41 -62 44 -83 12 -78 27 -126 60
-179 19 -31 39 -77 44 -102 15 -68 27 -96 61 -138 20 -25 33 -55 39 -89 8 -51
12 -60 65 -127 25 -31 30 -48 36 -118 6 -77 26 -137 50 -152 17 -11 50 -83 50
-110 0 -40 22 -75 87 -136 59 -57 69 -62 134 -73 20 -4 53 -21 75 -40 89 -75
127 -73 217 12 92 89 87 60 87 484 0 410 5 376 -64 462 -24 30 -30 50 -37 117
-6 61 -15 91 -36 126 -55 91 -63 108 -63 138 0 31 -14 57 -62 117 -15 19 -35
54 -43 79 -9 24 -31 67 -49 94 -19 28 -42 76 -51 108 -9 31 -27 70 -39 85 -30
35 -56 86 -56 109 -1 38 -41 101 -115 178 -61 64 -79 90 -91 133 -30 101 -124
191 -215 206 -20 4 -53 21 -75 40 -67 57 -113 68 -185 47z"/>
</g></g></g></svg>