<svg viewBox="0 0 2840 2600" xmlns="http://www.w3.org/2000/svg">
<g class="spark s0"><g transform="translate(0.000000,2600.000000) scale(0.100000,-0.100000)"
fill="#7B91AD" stroke="none">
<path d="M1855 21888 c-82 -46 -227 -217 -249 -292 -12 -41 -32 -69 -100 -141
-87 -91 -100 -112 -110 -175 -4 -20 -23 -56 -46 -84 -22 -27 -42 -59 -45 -72
-3 -13 -8 -36 -11 -51 -3 -16 -23 -51 -44 -79 -25 -32 -43 -69 -50 -102 -10
-44 -22 -62 -87 -129 -102 -107 -113 -131 -113 -270 0 -119 -6 -145 -39 -180
-50 -53 -61 -84 -61 -176 0 -64 -6 -103 -21 -145 -93 -253 -96 -316 -21 -454
94 -171 181 -213 337 -162 176 58 167 53 195 123 14 34 40 80 57 101 37 43 49
69 58 121 3 20 20 53 39 75 43 51 56 76 56 111 0 27 9 48 68 153 14 26 26 70
31 116 7 59 15 82 37 110 53 66 57 75 65 126 5 30 23 76 44 109 19 31 43 84
54 117 22 72 91 196 144 259 23 28 44 67 54 103 10 37 31 77 54 105 39 48 43
56 53 116 4 20 21 53 40 75 53 63 56 74 56 206 0 147 1 146 -126 272 -119 119
-237 161 -319 114z"/>
</g></g><g class="spark s1"><g transform="translate(0.000000,2600.000000) scale(0.100000,-0.100000)"
fill="#7B91AD" stroke="none">
<path d="M6890 25188 c-19 -5 -57 -26 -85 -46 -49 -37 -50 -37 -175 -43 -135
-6 -157 -12 -228 -61 -44 -31 -53 -33 -158 -38 -105 -5 -114 -7 -170 -41 -78
-48 -86 -50 -180 -59 -55 -5 -94 -16 -123 -32 -120 -66 -125 -68 -187 -68 -74
0 -131 -19 -182 -60 -26 -20 -56 -33 -90 -39 -51 -8 -60 -12 -126 -65 -31 -24
-50 -30 -114 -36 -90 -9 -120 -19 -171 -61 -30 -24 -54 -32 -104 -39 -36 -4
-78 -15 -94 -23 -112 -58 -182 -102 -203 -126 -14 -16 -56 -46 -95 -65 -38
-20 -108 -59 -155 -86 -47 -27 -116 -65 -155 -86 -38 -20 -84 -51 -101 -68
-20 -21 -53 -39 -93 -51 -61 -18 -111 -55 -204 -147 -27 -27 -50 -39 -91 -48
-68 -14 -95 -37 -427 -372 -270 -271 -279 -284 -279 -383 0 -73 7 -91 56 -149
19 -22 36 -55 40 -75 18 -110 37 -121 222 -121 192 0 270 31 387 155 17 18 53
44 82 58 103 53 210 137 359 284 75 74 101 93 131 98 63 11 74 16 112 50 43
39 209 145 227 145 7 0 38 22 70 50 37 32 69 52 93 56 60 10 68 14 118 55 27
22 63 42 83 45 61 10 72 15 114 53 37 34 83 62 205 128 25 12 56 23 70 23 30
0 105 32 115 49 17 27 75 46 156 51 80 5 88 8 147 50 51 35 74 45 123 51 33 4
79 17 102 29 24 12 61 32 82 43 28 15 68 23 130 27 86 6 145 24 161 50 21 34
85 50 200 50 125 0 169 11 215 55 46 44 62 45 503 45 663 0 963 20 1073 70 38
18 76 24 174 30 138 7 160 14 234 67 147 105 179 181 136 322 -11 36 -25 85
-30 108 -13 53 -39 78 -103 99 -27 9 -66 31 -86 49 -20 18 -46 37 -58 44 -28
15 -1601 14 -1653 -1z"/>
</g></g><g class="spark s2"><g transform="translate(0.000000,2600.000000) scale(0.100000,-0.100000)"
fill="#7B91AD" stroke="none">
<path d="M20008 25186 c-157 -56 -309 -229 -308 -350 1 -138 234 -336 395
-336 38 0 69 -9 121 -34 127 -62 90 -59 849 -65 618 -5 704 -8 730 -22 17 -9
53 -29 80 -45 48 -28 56 -29 216 -34 167 -5 167 -5 207 -38 56 -44 84 -54 182
-61 74 -6 92 -12 132 -39 62 -42 90 -53 171 -62 52 -6 75 -14 103 -36 64 -52
88 -64 124 -64 33 0 54 -9 160 -68 23 -13 71 -26 111 -32 58 -7 78 -14 108
-39 44 -38 84 -58 131 -65 20 -4 56 -23 83 -45 50 -41 58 -45 118 -55 23 -4
55 -22 85 -49 26 -23 70 -54 98 -68 81 -41 191 -104 227 -131 19 -14 56 -33
84 -43 27 -10 70 -37 95 -60 45 -40 125 -92 208 -134 24 -12 102 -81 176 -155
131 -132 227 -204 330 -251 28 -12 68 -36 90 -54 54 -44 91 -51 261 -51 179 0
190 4 258 107 141 210 58 383 -368 768 -162 146 -210 183 -277 214 -34 16 -76
43 -93 61 -45 48 -142 114 -217 148 -36 16 -71 39 -77 51 -7 12 -46 39 -89 62
-42 22 -120 65 -172 95 -52 29 -119 65 -149 80 -30 14 -74 43 -98 64 -32 27
-60 42 -97 50 -35 7 -67 23 -99 50 -50 40 -58 44 -117 54 -20 3 -57 23 -84 46
-27 22 -59 42 -72 45 -13 3 -36 8 -51 11 -16 3 -52 24 -82 47 -52 40 -55 41
-152 47 -92 6 -101 8 -139 38 -51 42 -109 62 -177 62 -52 0 -123 26 -138 50
-15 24 -75 43 -160 50 -90 7 -121 17 -205 67 -39 24 -58 28 -165 33 -115 5
-122 7 -167 38 -71 49 -93 55 -228 61 -122 6 -126 7 -185 43 -33 21 -80 42
-105 47 -74 17 -1615 14 -1662 -3z"/>
</g></g><g class="spark s3"><g transform="translate(0.000000,2600.000000) scale(0.100000,-0.100000)"
fill="#7B91AD" stroke="none">
<path d="M26519 21891 c-72 -22 -183 -110 -203 -162 -19 -46 -23 -340 -6 -398
13 -48 86 -167 137 -224 27 -31 45 -62 49 -85 10 -61 14 -69 55 -119 22 -27
42 -63 45 -83 10 -59 14 -67 55 -117 23 -28 41 -62 44 -83 12 -78 27 -126 60
-179 19 -31 39 -77 44 -102 15 -68 27 -96 61 -138 20 -25 33 -55 39 -89 8 -51
12 -60 65 -127 25 -31 30 -48 36 -118 6 -77 26 -137 50 -152 17 -11 50 -83 50
-110 0 -40 22 -75 87 -136 59 -57 69 -62 134 -73 20 -4 53 -21 75 -40 89 -75
127 -73 217 12 92 89 87 60 87 484 0 410 5 376 -64 462 -24 30 -30 50 -37 117
-6 61 -15 91 -36 126 -55 91 -63 108 -63 138 0 31 -14 57 -62 117 -15 19 -35
54 -43 79 -9 24 -31 67 -49 94 -19 28 -42 76 -51 108 -9 31 -27 70 -39 85 -30
35 -56 86 -56 109 -1 38 -41 101 -115 178 -61 64 -79 90 -91 133 -30 101 -124
191 -215 206 -20 4 -53 21 -75 40 -67 57 -113 68 -185 47z"/>
</g></g></svg>
